<?xml version="1.0" encoding="UTF-8" standalone="no"?>
<svg width="28px" height="25px" viewBox="0 0 28 25" version="1.1" xmlns="http://www.w3.org/2000/svg" xmlns:xlink="http://www.w3.org/1999/xlink">
    <!-- Generator: Sketch 41.1 (35376) - http://www.bohemiancoding.com/sketch -->
    <title>Page 1@1x</title>
    <desc>Created with Sketch.</desc>
    <defs></defs>
    <g id="Main" stroke="none" stroke-width="1" fill="none" fill-rule="evenodd">
        <g transform="translate(-948.000000, -1273.000000)" id="Group-15" fill="#FFFFFF">
            <g transform="translate(880.000000, 1260.000000)">
                <g id="Group-22" transform="translate(58.500000, 0.000000)">
                    <g id="Page-1" transform="translate(9.500000, 13.000000)">
                        <path d="M25.7895042,2.42758285 L25.5470707,2.87918599 C25.4665985,3.03010772 25.3930986,3.18495138 25.315822,3.33761619 C25.1657718,3.64541518 25.0234202,3.95757187 24.8831022,4.27089061 L24.4556117,5.2069249 C24.3077404,5.51603119 24.152461,5.82092504 23.990645,6.12233273 L23.9245532,6.24536517 L23.7803132,6.24638197 C23.3487555,6.24957762 22.9171978,6.24318632 22.4856401,6.22096205 L21.190967,6.14513804 C20.7594093,6.11768452 20.3278516,6.09473396 19.8962939,6.09110254 C19.4647362,6.08340393 19.0331784,6.08863318 18.6016207,6.10170628 L18.4848343,6.10519244 L18.5085112,5.98477462 C18.6953113,5.03668402 18.8476856,4.08045905 19.0872139,3.13672615 C19.1470597,2.90039347 19.2125705,2.66522284 19.2897018,2.42830914 C19.3674142,2.19531736 19.4638646,1.93995605 19.6208871,1.70812633 C19.6991805,1.59104942 19.7979551,1.47963751 19.9132889,1.38217025 C20.0310921,1.28630082 20.1671976,1.21221989 20.3053368,1.15992748 C20.5846654,1.05635944 20.856586,1.0447389 21.1093327,1.04023594 C21.596669,1.03369939 22.0752899,1.04764403 22.558559,1.05476161 C23.0408113,1.06449381 23.5230636,1.0870086 24.0053159,1.12579215 L24.7286944,1.18563792 C24.9709826,1.2101863 25.2060079,1.21367246 25.4631123,1.26218821 C25.5874521,1.28935121 25.7115013,1.32871578 25.82393,1.40003683 C25.9399901,1.46656441 26.0301945,1.59598814 26.0323734,1.733401 C26.0346975,1.99762297 25.9154417,2.22117306 25.7895042,2.42758285 L25.7895042,2.42758285 Z M23.2639256,7.49864014 L21.2391922,11.0539436 L19.1852622,14.5932688 L17.1365615,18.1353538 C16.4592294,19.3191961 15.7926463,20.5089939 15.1285326,21.7000989 L15.1282421,21.70068 L15.1275158,21.701842 C14.7565302,22.2971041 14.2578638,22.835716 13.6258519,23.1651582 C13.3122426,23.3307509 12.9674032,23.442889 12.6106527,23.4738287 C12.2534664,23.5046232 11.8936655,23.4645323 11.5526027,23.3474554 C10.8674268,23.1223075 10.2962774,22.6293062 9.87997161,22.0504581 C9.66760629,21.7574753 9.50462825,21.4454639 9.32276684,21.1463803 L8.78749584,20.2391069 C8.07544741,19.0286826 7.35410254,17.8234877 6.64960746,16.6087057 L5.59649626,14.7845719 C5.2493327,14.1743484 4.89635887,13.5673206 4.55718444,12.9525941 L4.3596353,12.5945363 L4.76519206,12.5965699 L8.50424524,12.6144365 L12.2434437,12.6702151 L12.8013747,12.6784947 L12.3336481,12.9735111 C11.4773597,13.5134303 10.7150525,14.2054333 10.1097677,15.0229381 C9.80371184,15.4290759 9.54544539,15.8706563 9.32596249,16.3305391 C9.21934406,16.5580111 9.10982049,16.8011709 9.03210815,17.0279166 C8.97676534,17.2351979 9.05636602,17.4851848 9.23256242,17.6220166 C9.40570843,17.7643682 9.66150551,17.7947268 9.86399337,17.6915946 C9.96480154,17.642062 10.0515198,17.5634781 10.109332,17.4664466 C10.1237124,17.4421888 10.137076,17.4172046 10.1479703,17.3910584 L10.1886421,17.3009992 L10.2688238,17.1250934 L10.429042,16.7732816 C10.4806081,16.6551879 10.5302859,16.5365131 10.6023333,16.425537 C10.7388746,16.2022774 10.8601639,15.9673973 11.0103594,15.7538699 C11.1704323,15.5481864 11.3190299,15.3323349 11.4892708,15.1347858 C11.6718585,14.9485667 11.8420994,14.7488387 12.0355813,14.5738044 C12.4255956,14.2264955 12.8420466,13.9075118 13.2949571,13.6469212 L13.6341315,13.4509699 C13.7474317,13.3858949 13.8685758,13.3362171 13.9853622,13.2781144 C14.2184993,13.1590039 14.4620948,13.0653133 14.7062713,12.9722038 C15.1959317,12.7913592 15.6998273,12.6465382 16.2136003,12.5497972 C16.7269375,12.4498606 17.2457945,12.3836236 17.77511,12.3712767 L17.8624093,12.3696789 C17.8949468,12.3675001 17.9295179,12.365176 17.9447699,12.360092 C17.9857322,12.3528291 18.0375889,12.3362699 18.0789871,12.3136098 C18.1659958,12.2700328 18.2400768,12.1995833 18.2878662,12.1159154 C18.3376893,12.0339906 18.3597683,11.934054 18.3555559,11.8431233 C18.3511982,11.7338903 18.3208395,11.6557421 18.2663682,11.5726553 C18.211897,11.4950882 18.1354919,11.4339351 18.0492094,11.3977662 C18.0060682,11.3798996 17.9604576,11.3695864 17.9144112,11.3631951 L17.8795496,11.3613068 C17.8754824,11.3610163 17.8638619,11.3599995 17.8660407,11.3604352 L17.8419281,11.3607258 L17.7424272,11.3611615 C17.4782053,11.359709 17.2181958,11.3502673 16.9571694,11.3313839 C16.4358431,11.295215 15.9162598,11.2330451 15.4003079,11.1413881 C14.8845013,11.0495859 14.3724714,10.9269892 13.8700284,10.7640112 C13.3728147,10.6035025 12.8642709,10.3905561 12.4186233,10.1383905 L12.407729,10.1324349 C11.9336111,9.85877129 11.4868014,9.517418 11.120464,9.090218 C10.937731,8.87712639 10.7760603,8.64326307 10.6437314,8.39284049 C10.5769133,8.26806497 10.5183749,8.13849598 10.467535,8.00631237 C10.4396457,7.94094684 10.4194551,7.87311196 10.3965045,7.80600335 L10.3630955,7.7021448 C10.3567042,7.67875847 10.3508939,7.65391957 10.3462457,7.62559451 L10.3407259,7.57867659 C10.3404354,7.55543551 10.3366587,7.55485449 10.3433405,7.49558975 L10.3503129,7.43283884 L10.3847387,7.39013337 C10.4769767,7.27567107 10.5153245,7.27654262 10.5604993,7.24618396 C10.6034953,7.22395968 10.6409716,7.20928875 10.6793193,7.19476308 C10.7548528,7.16730956 10.828498,7.14682837 10.9047578,7.13099538 C10.9817438,7.11588868 11.0593109,7.10426815 11.1496606,7.10412289 L11.3443046,7.10310609 L12.1233164,7.09889365 L13.6811947,7.09046876 C14.7197802,7.08204387 15.7583657,7.08291541 16.7970965,7.08654683 L23.0286097,7.09947468 L23.4908166,7.10034622 L23.2639256,7.49864014 Z M3.47124521,10.5988543 L3.47051893,10.5978375 L3.46979265,10.5966754 C3.32671478,10.35032 3.18523474,10.1032383 3.02995531,9.86371002 C2.87743575,9.62272912 2.71634605,9.3865417 2.55322276,9.15151633 C2.23002656,8.67972251 1.89767919,8.21301268 1.6093446,7.7216092 C1.53671624,7.59901253 1.46176378,7.47786843 1.39436466,7.35236662 C1.36691114,7.30254357 1.32086476,7.22686482 1.28614841,7.15249338 C1.25157731,7.07928399 1.218023,7.0037505 1.19492719,6.9215352 C1.15396479,6.75913819 1.10777316,6.56943291 1.20916234,6.33861999 C1.34279853,6.10519244 1.54209074,6.05304528 1.69838697,6.01164711 C1.86238181,5.97533294 2.01940432,5.97170152 2.17279541,5.97925487 L2.60101222,6.0080157 C2.88586064,6.0298042 3.17070906,6.04520142 3.45555749,6.05435259 C4.02525434,6.06887826 4.59495119,6.06277748 5.16464803,6.03532396 C5.46431264,5.99813824 5.80668273,6.09865589 6.05347389,6.31392634 C6.30433224,6.5248391 6.45002473,6.84730901 6.53165901,7.12097267 C6.71192259,7.6621992 6.87054293,8.20938126 7.03381148,8.75540126 C7.19824209,9.30098549 7.36122012,9.8470055 7.50836518,10.3973832 L7.5119966,10.4108921 L7.51504699,10.4278871 C7.54279102,10.582295 7.5834629,10.7439657 7.64418021,10.8989546 L7.65725331,10.9319279 L7.66117525,10.9583646 C7.66582346,10.9890138 7.66960014,11.0200988 7.67177899,11.0542341 L7.67352207,11.1097221 L7.67221476,11.1460363 L7.66945488,11.1736351 L7.66524243,11.1986193 L7.66059422,11.2179384 C7.65638177,11.2328998 7.65100728,11.2478613 7.64447072,11.2619512 L7.62863774,11.2969581 L7.61411207,11.3130816 C7.52056674,11.4169401 7.49369425,11.4080794 7.45621802,11.4319015 C7.42222794,11.447444 7.39375763,11.4571762 7.36514205,11.4663274 C7.30863719,11.4839035 7.25503746,11.496105 7.19838734,11.5045299 C7.14682121,11.5131001 7.07172348,11.5177483 7.02538659,11.5154242 L6.89625337,11.5109212 C6.7239789,11.5026416 6.55184969,11.4982839 6.37972048,11.4866633 C6.0353168,11.4663274 5.69091312,11.4320468 5.3466547,11.3997998 L4.83012181,11.3514293 C4.64535527,11.3355963 4.47003041,11.2927456 4.30283993,11.2289779 C3.96889473,11.1060907 3.66850384,10.8898035 3.47124521,10.5988543 L3.47124521,10.5988543 Z M6.82260821,3.32105693 L6.82377027,3.31873282 L6.82653014,3.31640871 C6.93126024,3.22881891 7.05661679,3.2285284 7.17122434,3.21022605 C7.28830125,3.19787923 7.40523291,3.19337627 7.52216457,3.19134268 L8.21954207,3.16606801 C8.68436357,3.14282693 9.14933032,3.10883686 9.61415182,3.07905923 L10.3113841,3.03432017 C10.4275894,3.02618579 10.5437948,3.01950398 10.6600002,3.01558205 C10.7717026,3.01253166 10.9218981,3.00062061 11.0826972,3.0566897 C11.2478541,3.10694852 11.3894794,3.24465189 11.4613815,3.38032167 C11.5399654,3.51744401 11.5738102,3.6523875 11.5996659,3.78239226 C11.6256669,3.91268754 11.6346728,4.04007768 11.6358348,4.16412692 L11.6378684,4.25752699 C11.6378684,4.28556153 11.6385947,4.28832141 11.6409188,4.31127197 C11.6457123,4.34656936 11.655735,4.38375508 11.6708417,4.42108605 L11.6871104,4.46161268 L11.6887083,4.50330135 C11.7078822,5.00080561 11.7097705,5.49903616 11.7064296,5.99770247 L11.704977,6.20193342 L11.5193389,6.19336327 L11.0749986,6.17302733 C10.9362785,6.17375361 10.7910217,6.18639095 10.6507038,6.21079408 C10.3693415,6.25930982 10.0914654,6.3519836 9.8602167,6.51655947 C9.74459235,6.59848426 9.64523676,6.70016396 9.55764696,6.81070432 C9.47441486,6.92560238 9.41326178,7.05415458 9.37331618,7.19011487 C9.29110088,7.4621807 9.31899017,7.76286211 9.40135073,8.03434691 C9.49518657,8.32456984 9.60645321,8.5898086 9.75548661,8.84865607 C9.90190538,9.10474367 10.0724368,9.34557931 10.2630136,9.56825786 C10.4546072,9.79035538 10.666682,9.99327901 10.8927015,10.1781908 C11.1203187,10.3612143 11.3563609,10.5331982 11.6050404,10.6865893 L11.7436153,10.7720003 L11.6920492,10.9378834 C11.6638694,11.0289594 11.6288625,11.1209069 11.5722124,11.214307 C11.5434515,11.2609344 11.5094615,11.3081428 11.4619625,11.3547702 C11.411849,11.3997998 11.3546178,11.4529638 11.2346358,11.4770764 L11.2251941,11.47911 L11.1990479,11.4798363 C10.7181029,11.494943 10.2371579,11.4984291 9.75606763,11.5083066 C9.69070211,11.5088876 9.64770612,11.5116475 9.56389299,11.5101949 C9.53062921,11.5084518 9.51131006,11.5107759 9.46628048,11.505692 C9.42531809,11.500608 9.37941696,11.4972671 9.34266701,11.4885517 C9.1900022,11.4596456 9.03937099,11.3970399 8.90980199,11.3082881 C8.77907095,11.2204078 8.67332406,11.1069623 8.5866058,10.9875612 C8.54375506,10.9275702 8.50511678,10.8654003 8.47185299,10.8017779 C8.4547127,10.7701119 8.43931548,10.7380102 8.42464456,10.7054727 L8.39268808,10.6279056 L8.38629678,10.6130894 L8.28461708,10.274496 L8.28040463,10.2458804 C8.27430385,10.2351314 8.27822578,10.2333884 8.2644264,10.1870515 L8.23479403,10.0799973 L8.17567454,9.86603413 L8.05975968,9.4372363 L7.83722639,8.57717127 C7.68761197,8.00413352 7.5542663,7.42644755 7.43254117,6.84542068 L7.44677633,6.88217063 C7.43762516,6.86227046 7.43602733,6.84992363 7.43283168,6.83597899 C7.43225066,6.8339454 7.43181489,6.83278334 7.43123386,6.830895 C7.42890975,6.81898395 7.42542359,6.80997804 7.42513308,6.80286046 L7.39012621,6.6080712 L7.34858279,6.38989561 L7.26549595,5.95354443 L7.09743392,5.08142309 C7.04049329,4.79090966 6.97817816,4.50170353 6.91223161,4.2135142 C6.88259924,4.06796697 6.84236313,3.92764898 6.8125855,3.78006816 C6.79893137,3.7054062 6.78934442,3.63103476 6.78658455,3.55492024 C6.78702032,3.47793418 6.78179107,3.40428903 6.82260821,3.32105693 L6.82260821,3.32105693 Z M12.5965628,5.01155461 C12.5999037,4.67441377 12.6225637,4.3366919 12.6401398,3.9994058 L12.699114,2.98827379 L12.7216288,2.48336143 C12.726858,2.31486364 12.731361,2.14694688 12.7570714,1.97627023 C12.7813293,1.82767261 12.8221464,1.66832599 12.9199042,1.53948328 C13.0167904,1.40802595 13.1729414,1.32886104 13.3279303,1.29574251 C13.4840813,1.2608809 13.6419754,1.25303703 13.7918803,1.24141649 L14.2478411,1.20059936 L15.1596175,1.12187022 C15.4634946,1.10153428 15.7675169,1.09020425 16.071394,1.08584655 C16.375271,1.08482975 16.6792933,1.08642758 16.9831704,1.10008171 C17.1383046,1.10574672 17.277751,1.11126648 17.4549642,1.1323287 C17.6221547,1.15847491 17.8045971,1.19493435 17.9728044,1.33118515 C18.0570533,1.40061786 18.1167538,1.50331436 18.1439168,1.58959685 C18.1741302,1.67849396 18.1882201,1.76463119 18.1954829,1.84873483 C18.2081203,2.01694211 18.1937399,2.17716027 18.1699178,2.33331124 C18.1488555,2.48989799 18.1166086,2.64212703 18.0785513,2.79232247 L18.0211749,3.01659885 L17.9932856,3.12205522 L17.9733854,3.23433867 L17.9730949,3.23608175 L17.9720781,3.24029419 C17.9128134,3.4718334 17.8596494,3.70482518 17.8070665,3.93796221 C17.7559361,4.17138975 17.7072751,4.40554358 17.6648602,4.64100472 L17.4057222,6.05072117 L17.3782687,6.19975456 L17.2074468,6.20934151 C16.4868282,6.24957762 15.7663549,6.25785725 15.0457363,6.27659537 C14.6854996,6.28574654 14.325263,6.29475246 13.9650263,6.29286412 C13.6047896,6.29707657 13.244553,6.28807065 12.8841711,6.28109833 L12.6206754,6.27586908 L12.6097811,6.02181508 C12.5952554,5.68540053 12.5911883,5.34869545 12.5965628,5.01155461 L12.5965628,5.01155461 Z M27.1109045,0.940735089 C26.9377585,0.63308136 26.6635138,0.394860342 26.3483068,0.242195532 C26.0323734,0.0883686673 25.6805616,0.018500186 25.3300572,0.00223143356 C24.9775191,-0.00474088891 24.6197518,0.00673439182 24.2648897,0.00804170228 L23.1982696,0.0193717263 L18.9319345,0.0965030436 L14.6655994,0.174796415 L13.6069685,0.188160033 C13.4194421,0.195858639 13.2712802,0.206171866 13.1128051,0.242195532 C12.9533133,0.271392132 12.800939,0.32281301 12.656699,0.38701648 C12.3680739,0.517311756 12.1252047,0.723285782 11.9591763,0.984166847 C11.7931478,1.24562894 11.7104968,1.55734986 11.682317,1.87880297 L11.6627073,2.1032246 L11.4427886,2.10249832 L9.38638929,2.095526 L8.35811698,2.09218509 C8.01821626,2.09218509 7.66611397,2.08724636 7.33638122,2.09131355 C7.01013464,2.09697856 6.69173191,2.13692416 6.41443683,2.25835878 C6.27658821,2.31893083 6.15108641,2.39969356 6.04475849,2.5009375 C6.01570714,2.52388806 5.99406389,2.55410146 5.96835345,2.58039292 L5.93407287,2.61845018 L5.89485355,2.66943529 C5.85069551,2.73000734 5.81568864,2.78564066 5.78184383,2.85550915 C5.64806239,3.1214742 5.61784899,3.44132949 5.64777188,3.75929645 C5.66389537,3.92241974 5.6926562,4.07232467 5.73434488,4.24300132 L5.85011449,4.74399174 L5.89746818,4.9485132 L5.69192992,4.9454628 L2.78461671,4.90275733 C2.54363581,4.90057848 2.29742568,4.89258936 2.06051197,4.89520398 C1.82868225,4.90014271 1.59467367,4.93529483 1.37286667,5.00196767 C1.15033337,5.06718793 0.938839593,5.16712456 0.755089844,5.30439215 C0.570468556,5.43802834 0.415043867,5.61756564 0.306682356,5.81162861 C0.193672629,6.01978149 0.132955321,6.23606874 0.114943488,6.46891526 C0.095333831,6.69885665 0.125982999,6.93271996 0.184666713,7.1584489 C0.246546074,7.38403259 0.341543968,7.60133664 0.459056653,7.8058581 L0.817986003,8.43917739 L2.2590779,10.9641749 L2.26793856,10.9855277 L2.30468851,11.0678882 L2.31325866,11.0886599 L2.32618651,11.1088506 L2.35552836,11.154897 L2.47304105,11.3392278 L2.47347682,11.339954 L2.47507464,11.3428592 L8.2959471,21.3901211 L8.65821736,22.0189374 C8.71733684,22.1187288 8.78212134,22.2395824 8.83630209,22.3222335 C8.90181287,22.4217343 8.96587109,22.5321294 9.03254392,22.6198645 C9.2937155,22.9923027 9.60732475,23.344986 9.96029858,23.6346279 C10.6647937,24.2163811 11.5653853,24.5616563 12.4607477,24.5326049 C13.3744125,24.5147384 14.2439192,24.1372162 14.932436,23.5358533 C15.2788733,23.237496 15.5824598,22.8881536 15.8497322,22.5112125 L16.0342082,22.2337721 L16.2104046,21.9165315 L16.5629427,21.2821954 L19.3826661,16.2076519 C19.8496665,15.360079 20.3367122,14.523836 20.8127185,13.6814923 C21.2935182,12.841618 21.7653121,11.9968049 22.2533746,11.161143 L25.1634477,6.13642264 C25.6500577,5.29974394 26.1288239,4.4588528 26.6052659,3.6167996 C26.8337547,3.19047114 27.1225251,2.79116042 27.2410546,2.32648418 C27.3694615,1.86878026 27.3453489,1.35936495 27.1109045,0.940735089 L27.1109045,0.940735089 Z" id="Fill-1"></path>
                    </g>
                </g>
            </g>
        </g>
    </g>
</svg>