<?xml version="1.0" encoding="UTF-8" standalone="no"?>
<svg width="192px" height="28px" viewBox="0 0 192 28" version="1.1" xmlns="http://www.w3.org/2000/svg" xmlns:xlink="http://www.w3.org/1999/xlink">
    <!-- Generator: Sketch 41.1 (35376) - http://www.bohemiancoding.com/sketch -->
    <title>Logo</title>
    <desc>Created with Sketch.</desc>
    <defs></defs>
    <g id="Main" stroke="none" stroke-width="1" fill="none" fill-rule="evenodd">
        <g transform="translate(-299.000000, -36.000000)" id="Top-Nav">
            <g transform="translate(269.000000, 10.000000)">
                <g id="logo" transform="translate(30.000000, 26.000000)">
                    <path d="M28.6237463,2.80887375 L26.4158967,6.83990195 L20.6587247,6.83990195 C20.9174523,5.69876529 21.3745579,3.79883471 21.7035633,2.86535965 C22.0869616,1.78040521 22.5878102,1.58804946 23.4970876,1.58804946 L27.9757839,1.58804946 C28.4029252,1.58804946 28.7222433,1.69950282 28.8242301,1.89125119 C28.9337983,2.07832278 28.864724,2.41007115 28.6237463,2.80887375 L28.6237463,2.80887375 Z M16.7714918,24.4373249 C15.9938647,25.699633 14.8698434,26.4290299 13.7280722,26.4028521 C12.6075407,26.3890039 11.5557225,25.6802577 10.8448231,24.4670256 L5.27652222,14.5036416 L13.5902245,14.5036416 C12.1361148,15.4618369 10.7708751,16.9014985 9.94366857,19.0881709 C9.79655481,19.481082 9.98885566,19.920518 10.3792938,20.0719367 C10.4672612,20.1086829 10.5598616,20.1228347 10.6499349,20.1228347 C10.9549327,20.1228347 11.2398942,19.9357631 11.3561411,19.6322577 C13.3137469,14.4659844 18.7369798,14.1701319 19.6760409,14.1610213 L19.8374147,14.1610213 C20.2456028,14.1574985 20.5806852,13.8195549 20.5806852,13.4042317 C20.584175,12.9878152 20.2566739,12.6472599 19.8470418,12.6352338 L19.7771252,12.6352338 C19.3780227,12.631954 16.2479594,12.5695766 13.9821067,11.2767176 C13.9594229,11.2620191 13.9355357,11.2444052 13.9095426,11.2338369 C12.932635,10.658531 12.1256454,9.84683471 11.7905028,8.70332928 C11.7573495,8.60299089 11.76463,8.55689111 11.76463,8.55689111 C11.8144501,8.48218395 12.1087378,8.37862646 12.3415326,8.36860477 L19.6961374,8.36860477 L19.7164746,8.36860477 L25.5803267,8.36860477 L16.7714918,24.4373249 Z M1.55619881,7.29567636 C1.66197631,7.10690412 1.98243761,6.9945397 2.40843573,6.9945397 L5.72400075,6.9945397 C5.74030661,6.9945397 5.75956076,6.9945397 5.77586662,6.99399306 C5.81407408,6.99047028 6.69591426,6.93987592 6.98556891,8.03509501 C7.44851094,9.77212755 7.93419693,11.5549562 8.018133,11.8537848 C8.04671338,12.0313813 8.10261059,12.2355202 8.18943479,12.44962 C8.20459743,12.5399367 8.20225083,12.5984876 8.1976178,12.6086915 C8.16326117,12.6549128 7.97324676,12.7172295 7.82234234,12.7201449 L5.31671526,12.7201449 C5.27387477,12.7201449 4.37296095,12.7201449 3.86254541,11.9767176 L1.74470899,8.18633145 C1.52154134,7.81807983 1.45162469,7.48450933 1.55619881,7.29567636 L1.55619881,7.29567636 Z M7.58864506,3.84353753 C7.68942852,3.71914707 8.23197443,3.71914707 8.40881178,3.71914707 L11.8500102,3.71914707 C12.1870782,3.71914707 12.6500202,3.71914707 12.6500202,4.8825744 C12.6500202,4.9814551 12.6728243,5.07669154 12.7083242,5.16348547 C12.7319707,5.79582386 12.7654248,6.39287375 12.7852204,6.83990195 L12.3179462,6.83990195 C12.1122276,6.84810152 11.0714805,6.91958959 10.538321,7.66599306 C10.3332643,7.95012321 10.1359694,8.43833145 10.3378372,9.13863514 C10.7545091,10.5515115 11.6553627,11.567954 12.7461706,12.2972902 C12.65351,12.5802056 12.5218597,12.7057501 12.4291991,12.7201449 L10.6499349,12.7201449 C10.0741756,12.7201449 9.77615744,12.312839 9.63277418,11.9790256 C9.62086067,11.9496286 9.61123359,11.9184703 9.59727433,11.8914421 C9.53548054,11.7346785 9.50810354,11.6008738 9.50112391,11.5661319 C9.49847647,11.5393466 9.49119599,11.5093423 9.48421636,11.4849866 C9.47489013,11.4526134 8.95978139,9.56768503 8.46218189,7.71925987 C8.45983529,7.71452234 8.46218189,7.70808416 8.45983529,7.70456139 C8.45514209,7.67449631 8.44581586,7.6492295 8.4396786,7.61922516 C8.07288699,6.26283471 7.72733513,4.94464816 7.60531194,4.41234447 C7.51993181,4.03941605 7.56596127,3.87761128 7.58864506,3.84353753 L7.58864506,3.84353753 Z M14.1907134,2.32297354 C14.2798842,1.78660043 14.5292856,1.58804946 15.1073314,1.58804946 L19.196432,1.58804946 C19.5573872,1.58804946 19.8042615,1.66652234 19.9216516,1.82419696 C20.0189453,1.95241388 20.2149766,2.38358959 19.8930713,3.57295184 C19.879112,3.61826204 19.8744188,3.66533362 19.8706281,3.71179783 C19.5714066,4.81527722 19.2736893,6.10169805 19.1087654,6.83990195 L14.302568,6.83990195 C14.2026871,5.08142907 14.1138171,2.77826204 14.1907134,2.32297354 L14.1907134,2.32297354 Z M30.144343,1.1401102 C29.7623887,0.45571974 28.9739312,0.0607436009 27.9757839,0.0607436009 L15.1073314,0.0607436009 C13.7932956,0.0607436009 12.7948475,0.807754447 12.6999005,2.18947245 L8.40881178,2.19475662 C7.90447333,2.19475662 6.95698853,2.19475662 6.40752316,2.89591063 C6.04446205,3.3535679 5.95300483,3.97910369 6.13339217,4.75672625 C6.17502927,4.93644859 6.22719599,5.14817961 6.30673971,5.4666872 L2.40843573,5.46784121 C1.41257487,5.46784121 0.623034284,5.86166334 0.238432592,6.54872625 C-0.141175055,7.23755054 -0.0628347227,8.12158525 0.440360514,8.95830542 L2.39790611,12.4566655 C2.41078233,12.5031297 2.43232291,12.5525093 2.45855669,12.5984876 C2.51415306,12.7016807 2.57444262,12.7943054 2.63623641,12.882557 L9.53782714,25.2301926 C10.530138,26.9260451 12.0504338,27.9095679 13.7111647,27.9307046 L13.7636322,27.9307046 C15.4406087,27.9307046 17.0063323,26.952223 18.0771039,25.211121 L29.9319456,3.57295184 C30.4481976,2.71302993 30.5277413,1.82893449 30.144343,1.1401102 L30.144343,1.1401102 Z" class="logomark" fill="#96CD91"></path>
                    <path d="M41.1791504,17.8945024 C41.3811385,17.6412269 41.7446809,17.5896 42.005695,17.7802551 C42.6384346,18.2424069 43.9230476,18.9773918 45.6930457,18.9773918 C46.8775972,18.9773918 48.2139558,18.4255306 48.2139558,17.2911358 C48.2139558,15.2983375 41.7142955,15.3289492 41.7142955,10.7607584 C41.7142955,7.69484946 44.7819031,5.82461952 47.8495107,5.82461952 C50.3354023,5.82461952 51.9896348,6.70992972 52.7482484,7.23123991 C53.0237032,7.42049805 53.0963876,7.79822473 52.9114876,8.07810325 L51.8213415,9.72882777 C51.6378856,10.0066412 51.2678448,10.0859644 50.989502,9.90563471 C50.4313121,9.54412495 49.3820209,9.04382993 47.8495107,9.04382993 C46.7257301,9.04382993 45.3286007,9.53440694 45.3286007,10.7300859 C45.3286007,12.6309883 51.8586464,12.6309883 51.8586464,17.2911358 C51.8586464,20.2037432 49.2162547,22.1966022 45.6930457,22.1966022 C42.8770657,22.1966022 40.9028533,20.9874395 40.0421325,20.3345718 C39.7668583,20.1257562 39.7161356,19.7293223 39.932083,19.4584937 L41.1791504,17.8945024 Z" class="logotype" fill="#FFFFFF"></path>
                    <path d="M54.9868565,16.0341302 L56.7748453,6.68947939 C56.8300806,6.40097614 57.0802041,6.19258568 57.3713028,6.19258568 L59.9902285,6.19258568 C60.3722429,6.19258568 60.6594306,6.5443167 60.5864454,6.92283297 L58.9959922,15.1756659 C58.8745106,15.788872 58.8137396,16.3714056 58.8137396,16.7699653 C58.8137396,17.9349718 59.3301119,18.6401345 60.7575667,18.6401345 C63.3999584,18.6401345 65.5867487,16.0034577 66.103121,13.2441518 L67.345074,6.69051193 C67.3998882,6.40152278 67.6502523,6.19258568 67.9417121,6.19258568 L70.5600361,6.19258568 C70.9419903,6.19258568 71.2291179,6.54413449 71.1563733,6.92259002 L68.3853398,21.3323861 C68.3299239,21.6205857 68.0798606,21.8286725 67.7890026,21.8286725 L65.2919195,21.8286725 C64.9096043,21.8286725 64.6223564,21.4765163 64.6957628,21.097757 L64.8274733,20.4184078 C64.9793404,19.6519002 65.2223037,18.9160651 65.2223037,18.9160651 L65.1615328,18.9160651 C64.2807757,20.3570629 62.1243106,22.1966204 59.3908227,22.1966204 C56.8699126,22.1966204 54.7438932,21.0622256 54.7438932,17.9349718 C54.7438932,17.3831106 54.8653749,16.7086204 54.9868565,16.0341302" class="logotype" fill="#FFFFFF"></path>
                    <path d="M80.651029,18.9160894 C82.9896865,18.9160894 85.6320782,16.6166273 85.6320782,12.692315 C85.6320782,10.515482 84.4779121,9.16650152 82.5644706,9.16650152 C80.0435605,9.16650152 77.6138068,11.9871523 77.6138068,15.3902759 C77.6138068,17.32179 78.5553349,18.9160894 80.651029,18.9160894 M74.5826617,27.9605145 L72.2401534,27.9605145 C71.7822055,27.9605145 71.4376765,27.539239 71.5244405,27.0852868 L75.404092,6.78899176 C75.4702782,6.44272711 75.7705226,6.19254924 76.1198651,6.19254924 L78.1615273,6.19254924 C78.6184524,6.19254924 78.9626805,6.6120026 78.8777818,7.06516529 L78.8286837,7.32694403 C78.7375875,7.90947766 78.5249494,8.46133883 78.5249494,8.46133883 L78.5857203,8.46133883 C79.6487301,6.95905683 81.5014609,5.82466204 83.6882512,5.82466204 C87.3633274,5.82466204 89.5501177,8.39999393 89.5501177,12.4163844 C89.5501177,18.2109267 85.3587294,22.1965839 81.1066304,22.1965839 C79.2538996,22.1965839 77.5834214,21.4608095 76.7026642,19.8971826 L76.6418933,19.8971826 C76.6418933,19.8971826 76.6115079,20.5103887 76.4596407,21.307508 L75.2983145,27.3644972 C75.2319479,27.7105796 74.9318238,27.9605145 74.5826617,27.9605145" class="logotype" fill="#FFFFFF"></path>
                    <path d="M96.5051026,19.1613597 C98.5400258,19.1613597 100.453467,16.8925701 100.817973,14.9917284 C100.849381,14.833082 100.729223,14.6851254 100.568992,14.6851254 L100.24089,14.6851254 C98.4793151,14.6851254 94.5005648,14.961056 94.5005648,17.5364486 C94.5005648,18.4255245 95.1383586,19.1613597 96.5051026,19.1613597 M100.787587,12.0177761 L101.36467,12.0177761 C101.425381,11.6498889 101.455766,11.3739584 101.455766,11.1593119 C101.455766,9.8410039 100.726816,9.0438846 98.9652417,9.0438846 C97.5274981,9.0438846 96.0386708,9.66267852 95.1695263,10.0978022 C94.766212,10.2996937 94.2800446,10.088813 94.1482139,9.65423601 L93.6744414,8.09182386 C93.5698673,7.74707766 93.7275708,7.37597137 94.0480923,7.21689978 C95.0220515,6.73373275 97.1803818,5.82467419 99.633421,5.82467419 C102.458065,5.82467419 105.313035,7.02035315 105.313035,10.6381232 C105.313035,11.0980278 105.252324,11.6192165 105.161168,12.1710777 L103.422819,21.2327523 C103.356452,21.578774 103.056328,21.8287089 102.707166,21.8287089 L100.631989,21.8287089 C100.175967,21.8287089 99.8319794,21.4108347 99.915374,20.9582794 L99.9979262,20.5103401 C100.119408,19.8665223 100.30166,19.3759453 100.30166,19.3759453 L100.24089,19.3759453 C100.24089,19.3759453 98.4793151,22.1965961 95.1990694,22.1965961 C92.7997012,22.1965961 90.6129108,20.7862707 90.6129108,18.2109388 C90.6129108,13.2135158 96.6873552,12.0177761 100.787587,12.0177761" class="logotype" fill="#FFFFFF"></path>
                    <path d="M112.109757,0.0607436009 L114.484756,0.0607436009 C114.942163,0.0607436009 115.286571,0.481108026 115.20071,0.934635141 L113.93866,7.60288677 C113.786793,8.36933362 113.604541,8.9825397 113.604541,8.9825397 L113.665312,8.9825397 C114.485358,7.51093015 116.763245,5.82467419 119.375251,5.82467419 C122.108799,5.82467419 124.022241,7.08169805 124.022241,10.086262 C124.022241,10.6687957 123.931084,11.2820017 123.809603,11.956492 L122.040326,21.2320234 C121.974261,21.5784095 121.674016,21.8287089 121.324553,21.8287089 L118.953765,21.8287089 C118.495276,21.8287089 118.150627,21.4065831 118.238233,20.9523271 L119.830852,12.6922664 C119.921948,12.1710777 119.982719,11.6805614 119.982719,11.2820017 C119.982719,9.96363297 119.284155,9.38109935 118.069278,9.38109935 C115.396501,9.38109935 113.088229,11.9258195 112.541531,14.777082 L111.290011,21.2341492 C111.223043,21.5795028 110.92322,21.8287089 110.574659,21.8287089 L108.201765,21.8287089 C107.743396,21.8287089 107.398747,21.4067046 107.486233,20.9525093 L111.394224,0.656153579 C111.460771,0.310374837 111.760775,0.0607436009 112.109757,0.0607436009" class="logotype" fill="#FFFFFF"></path>
                    <path d="M131.341695,19.1613597 C133.376618,19.1613597 135.290059,16.8925701 135.654564,14.9917284 C135.685973,14.833082 135.565815,14.6851254 135.405584,14.6851254 L135.077481,14.6851254 C133.315907,14.6851254 129.337157,14.961056 129.337157,17.5364486 C129.337157,18.4255245 129.974951,19.1613597 131.341695,19.1613597 M135.624179,12.0177761 L135.624179,12.0177761 C135.966181,12.0177761 136.253008,11.7536286 136.281107,11.4095505 C136.288628,11.3177154 136.292358,11.2347479 136.292358,11.1593119 C136.292358,9.8410039 135.563468,9.0438846 133.801834,9.0438846 C132.324799,9.0438846 130.793854,9.69693449 129.936322,10.1330299 C129.571155,10.3187046 129.12861,10.1283531 129.008934,9.73368069 L128.493705,8.03473059 C128.399119,7.72290412 128.542442,7.38866551 128.831675,7.24338134 C129.778558,6.76780651 131.971426,5.82467419 134.470013,5.82467419 C137.294657,5.82467419 140.149627,7.02035315 140.149627,10.6381232 C140.149627,11.0980278 140.088916,11.6192165 139.99776,12.1710777 L138.24846,21.2897241 C138.188471,21.6026438 137.916988,21.8287089 137.601159,21.8287089 L135.384826,21.8287089 C134.972366,21.8287089 134.661171,21.4507393 134.736623,21.0414291 L134.834518,20.5103401 C134.956,19.8665223 135.138192,19.3759453 135.138192,19.3759453 L135.077481,19.3759453 C135.077481,19.3759453 133.315907,22.1965961 130.035661,22.1965961 C127.636293,22.1965961 125.449503,20.7862707 125.449503,18.2109388 C125.449503,13.2135158 131.523947,12.0177761 135.624179,12.0177761" class="logotype" fill="#FFFFFF"></path>
                    <path d="M145.761978,6.19256139 L148.011344,6.19256139 C148.470134,6.19256139 148.814784,6.6151731 148.726696,7.06967202 L148.623385,7.60288677 C148.471518,8.36933362 148.228555,9.13584121 148.228555,9.13584121 L148.289266,9.13584121 C149.139697,7.66417093 151.478355,5.82467419 154.181518,5.82467419 C156.915005,5.82467419 158.858832,7.08169805 158.858832,10.086262 C158.858832,10.6687957 158.706965,11.4352425 158.585484,12.1097935 L156.846533,21.231902 C156.780467,21.5783488 156.480223,21.8287089 156.1307,21.8287089 L153.760574,21.8287089 C153.301904,21.8287089 152.957194,21.4062187 153.045101,20.9518412 L154.637059,12.7229388 C154.728215,12.2017501 154.819311,11.6805614 154.819311,11.281941 C154.819311,9.96363297 154.090361,9.38109935 152.875484,9.38109935 C150.202707,9.38109935 147.894435,11.9258195 147.347738,14.777082 L146.124617,21.2311124 C146.058913,21.5779236 145.758428,21.8287089 145.408664,21.8287089 L143.038117,21.8287089 C142.579808,21.8287089 142.235219,21.406826 142.322524,20.9526915 L145.046385,6.78815358 C145.112932,6.4423141 145.412936,6.19256139 145.761978,6.19256139" class="logotype" fill="#FFFFFF"></path>
                    <path d="M168.122059,18.9160894 C170.70368,18.9160894 173.042338,15.9728095 173.042338,12.6616425 C173.042338,10.7607401 172.131195,9.16650152 170.005115,9.16650152 C167.696843,9.16650152 165.024066,11.4965753 165.024066,15.3902759 C165.024066,17.5671089 166.208618,18.9160894 168.122059,18.9160894 M169.701441,5.82466204 C171.371859,5.82466204 173.194205,6.46847983 173.983866,7.97076182 C173.983866,7.97076182 174.075022,7.4495731 174.166118,7.020341 L175.388095,0.656566594 C175.454522,0.31060564 175.754646,0.0607314534 176.103688,0.0607314534 L178.475559,0.0607314534 C178.933928,0.0607314534 179.278517,0.482735792 179.191091,0.93693102 L175.28304,21.2332868 C175.216492,21.5790655 174.916489,21.8286967 174.567507,21.8286967 L172.422113,21.8286967 C171.959111,21.8286967 171.613439,21.3986751 171.708807,20.9413215 L171.76669,20.6636295 C171.888232,20.0198117 172.040039,19.498623 172.040039,19.498623 L171.979328,19.498623 C170.946643,21.0315774 169.124358,22.1965839 166.998279,22.1965839 C163.262492,22.1965839 161.106087,19.6519245 161.106087,15.6662065 C161.106087,9.81031931 165.206319,5.82466204 169.701441,5.82466204" class="logotype" fill="#FFFFFF"></path>
                    <path d="M180.119695,17.9843271 C180.35977,17.6832512 180.789258,17.620813 181.103522,17.8415939 C181.762555,18.3045354 183.011668,18.9773857 184.705252,18.9773857 C185.889743,18.9773857 187.226101,18.4255245 187.226101,17.2911297 C187.226101,15.2983315 180.726441,15.3290039 180.726441,10.7607523 C180.726441,7.69484338 183.794049,5.82467419 186.861656,5.82467419 C189.229376,5.82467419 190.842633,6.62774577 191.646133,7.15452234 C191.986991,7.37803644 192.081638,7.8389128 191.856184,8.18031844 L190.898951,9.62975879 C190.681319,9.95919913 190.245875,10.0541926 189.910792,9.84835315 C189.333288,9.49358525 188.314683,9.0438846 186.861656,9.0438846 C185.737876,9.0438846 184.340746,9.53440087 184.340746,10.7300798 C184.340746,12.6309822 190.870792,12.6309822 190.870792,17.2911297 C190.870792,20.2037978 188.2284,22.1965961 184.705252,22.1965961 C182.000825,22.1965961 180.072763,21.0813336 179.161861,20.4146785 C178.824793,20.1680234 178.762698,19.6861926 179.023712,19.3588781 L180.119695,17.9843271 Z" class="logotype" fill="#FFFFFF"></path>
                </g>
            </g>
        </g>
    </g>
</svg>