<?xml version="1.0" encoding="UTF-8" standalone="no"?>
<svg width="31px" height="28px" viewBox="0 0 31 28" version="1.1" xmlns="http://www.w3.org/2000/svg" xmlns:xlink="http://www.w3.org/1999/xlink">
    <!-- Generator: Sketch 41.1 (35376) - http://www.bohemiancoding.com/sketch -->
    <title>Fill 1</title>
    <desc>Created with Sketch.</desc>
    <defs></defs>
    <g id="Main" stroke="none" stroke-width="1" fill="none" fill-rule="evenodd">
        <g id="Logo" fill="#96CD91">
            <path d="M28.6237463,2.80887375 L26.4158967,6.83990195 L20.6587247,6.83990195 C20.9174523,5.69876529 21.3745579,3.79883471 21.7035633,2.86535965 C22.0869616,1.78040521 22.5878102,1.58804946 23.4970876,1.58804946 L27.9757839,1.58804946 C28.4029252,1.58804946 28.7222433,1.69950282 28.8242301,1.89125119 C28.9337983,2.07832278 28.864724,2.41007115 28.6237463,2.80887375 L28.6237463,2.80887375 Z M16.7714918,24.4373249 C15.9938647,25.699633 14.8698434,26.4290299 13.7280722,26.4028521 C12.6075407,26.3890039 11.5557225,25.6802577 10.8448231,24.4670256 L5.27652222,14.5036416 L13.5902245,14.5036416 C12.1361148,15.4618369 10.7708751,16.9014985 9.94366857,19.0881709 C9.79655481,19.481082 9.98885566,19.920518 10.3792938,20.0719367 C10.4672612,20.1086829 10.5598616,20.1228347 10.6499349,20.1228347 C10.9549327,20.1228347 11.2398942,19.9357631 11.3561411,19.6322577 C13.3137469,14.4659844 18.7369798,14.1701319 19.6760409,14.1610213 L19.8374147,14.1610213 C20.2456028,14.1574985 20.5806852,13.8195549 20.5806852,13.4042317 C20.584175,12.9878152 20.2566739,12.6472599 19.8470418,12.6352338 L19.7771252,12.6352338 C19.3780227,12.631954 16.2479594,12.5695766 13.9821067,11.2767176 C13.9594229,11.2620191 13.9355357,11.2444052 13.9095426,11.2338369 C12.932635,10.658531 12.1256454,9.84683471 11.7905028,8.70332928 C11.7573495,8.60299089 11.76463,8.55689111 11.76463,8.55689111 C11.8144501,8.48218395 12.1087378,8.37862646 12.3415326,8.36860477 L19.6961374,8.36860477 L19.7164746,8.36860477 L25.5803267,8.36860477 L16.7714918,24.4373249 Z M1.55619881,7.29567636 C1.66197631,7.10690412 1.98243761,6.9945397 2.40843573,6.9945397 L5.72400075,6.9945397 C5.74030661,6.9945397 5.75956076,6.9945397 5.77586662,6.99399306 C5.81407408,6.99047028 6.69591426,6.93987592 6.98556891,8.03509501 C7.44851094,9.77212755 7.93419693,11.5549562 8.018133,11.8537848 C8.04671338,12.0313813 8.10261059,12.2355202 8.18943479,12.44962 C8.20459743,12.5399367 8.20225083,12.5984876 8.1976178,12.6086915 C8.16326117,12.6549128 7.97324676,12.7172295 7.82234234,12.7201449 L5.31671526,12.7201449 C5.27387477,12.7201449 4.37296095,12.7201449 3.86254541,11.9767176 L1.74470899,8.18633145 C1.52154134,7.81807983 1.45162469,7.48450933 1.55619881,7.29567636 L1.55619881,7.29567636 Z M7.58864506,3.84353753 C7.68942852,3.71914707 8.23197443,3.71914707 8.40881178,3.71914707 L11.8500102,3.71914707 C12.1870782,3.71914707 12.6500202,3.71914707 12.6500202,4.8825744 C12.6500202,4.9814551 12.6728243,5.07669154 12.7083242,5.16348547 C12.7319707,5.79582386 12.7654248,6.39287375 12.7852204,6.83990195 L12.3179462,6.83990195 C12.1122276,6.84810152 11.0714805,6.91958959 10.538321,7.66599306 C10.3332643,7.95012321 10.1359694,8.43833145 10.3378372,9.13863514 C10.7545091,10.5515115 11.6553627,11.567954 12.7461706,12.2972902 C12.65351,12.5802056 12.5218597,12.7057501 12.4291991,12.7201449 L10.6499349,12.7201449 C10.0741756,12.7201449 9.77615744,12.312839 9.63277418,11.9790256 C9.62086067,11.9496286 9.61123359,11.9184703 9.59727433,11.8914421 C9.53548054,11.7346785 9.50810354,11.6008738 9.50112391,11.5661319 C9.49847647,11.5393466 9.49119599,11.5093423 9.48421636,11.4849866 C9.47489013,11.4526134 8.95978139,9.56768503 8.46218189,7.71925987 C8.45983529,7.71452234 8.46218189,7.70808416 8.45983529,7.70456139 C8.45514209,7.67449631 8.44581586,7.6492295 8.4396786,7.61922516 C8.07288699,6.26283471 7.72733513,4.94464816 7.60531194,4.41234447 C7.51993181,4.03941605 7.56596127,3.87761128 7.58864506,3.84353753 L7.58864506,3.84353753 Z M14.1907134,2.32297354 C14.2798842,1.78660043 14.5292856,1.58804946 15.1073314,1.58804946 L19.196432,1.58804946 C19.5573872,1.58804946 19.8042615,1.66652234 19.9216516,1.82419696 C20.0189453,1.95241388 20.2149766,2.38358959 19.8930713,3.57295184 C19.879112,3.61826204 19.8744188,3.66533362 19.8706281,3.71179783 C19.5714066,4.81527722 19.2736893,6.10169805 19.1087654,6.83990195 L14.302568,6.83990195 C14.2026871,5.08142907 14.1138171,2.77826204 14.1907134,2.32297354 L14.1907134,2.32297354 Z M30.144343,1.1401102 C29.7623887,0.45571974 28.9739312,0.0607436009 27.9757839,0.0607436009 L15.1073314,0.0607436009 C13.7932956,0.0607436009 12.7948475,0.807754447 12.6999005,2.18947245 L8.40881178,2.19475662 C7.90447333,2.19475662 6.95698853,2.19475662 6.40752316,2.89591063 C6.04446205,3.3535679 5.95300483,3.97910369 6.13339217,4.75672625 C6.17502927,4.93644859 6.22719599,5.14817961 6.30673971,5.4666872 L2.40843573,5.46784121 C1.41257487,5.46784121 0.623034284,5.86166334 0.238432592,6.54872625 C-0.141175055,7.23755054 -0.0628347227,8.12158525 0.440360514,8.95830542 L2.39790611,12.4566655 C2.41078233,12.5031297 2.43232291,12.5525093 2.45855669,12.5984876 C2.51415306,12.7016807 2.57444262,12.7943054 2.63623641,12.882557 L9.53782714,25.2301926 C10.530138,26.9260451 12.0504338,27.9095679 13.7111647,27.9307046 L13.7636322,27.9307046 C15.4406087,27.9307046 17.0063323,26.952223 18.0771039,25.211121 L29.9319456,3.57295184 C30.4481976,2.71302993 30.5277413,1.82893449 30.144343,1.1401102 L30.144343,1.1401102 Z" id="Fill-1"></path>
        </g>
    </g>
</svg>